<?xml version="1.0" encoding="utf-8"?>
<!-- Generator: Adobe Illustrator 25.1.0, SVG Export Plug-In . SVG Version: 6.00 Build 0)  -->
<svg version="1.1" id="Layer_1" xmlns="http://www.w3.org/2000/svg" xmlns:xlink="http://www.w3.org/1999/xlink" x="0px" y="0px"
	 viewBox="0 0 48 48" style="enable-background:new 0 0 48 48;" xml:space="preserve">
<style type="text/css">
	.st0{fill:#FFFFFF;}
</style>
<path class="st0" d="M43.79,13.96c-0.25,0.66-0.41,1.38-0.77,1.98c-0.88,1.49-2.25,2.3-3.97,2.37c-1.69,0.07-3.38,0.04-5.06,0.01
	c-0.85-0.01-1.49-0.71-1.5-1.54c-0.01-0.85,0.64-1.55,1.51-1.56c1.27-0.02,2.54-0.01,3.82-0.01c0.14,0,0.28,0,0.55,0
	c-0.49-0.69-0.9-1.33-1.37-1.92c-2.53-3.13-5.77-5.17-9.71-5.98c-4.78-0.98-9.21-0.07-13.19,2.78c-3.33,2.38-5.56,5.58-6.55,9.57
	c-1.19,4.82-0.44,9.37,2.33,13.49c2.75,4.1,6.62,6.57,11.52,7.31c1.15,0.17,2.33,0.11,3.49,0.16c0.31,0.01,0.63-0.03,0.93,0.03
	c0.77,0.15,1.28,0.85,1.23,1.62c-0.06,0.77-0.67,1.38-1.44,1.44c-0.24,0.02-0.49,0.05-0.73,0.07c-0.73,0-1.45,0-2.18,0
	c-0.11-0.02-0.23-0.05-0.34-0.07c-1.09-0.17-2.19-0.26-3.26-0.52C8.83,40.74,2.24,30.43,4.25,20.06c0.77-3.98,2.57-7.42,5.41-10.3
	c2.98-3.02,6.56-4.92,10.75-5.64c0.75-0.13,1.51-0.21,2.27-0.31c0.81,0,1.61,0,2.42,0c0.13,0.03,0.25,0.06,0.38,0.07
	c0.69,0.09,1.4,0.15,2.08,0.28c4.96,0.99,9,3.48,12.12,7.47c0.33,0.42,0.64,0.87,1.01,1.39c0-0.22,0-0.35,0-0.47
	c0-1.27-0.01-2.55,0.01-3.82c0.01-0.67,0.33-1.17,0.95-1.44c0.61-0.26,1.19-0.15,1.65,0.3c0.22,0.22,0.34,0.54,0.5,0.81
	C43.79,10.27,43.79,12.11,43.79,13.96z"/>
<path class="st0" d="M25.4,17.56c0,2.03-0.01,4.06,0,6.09c0,0.54-0.18,0.98-0.56,1.36c-1.99,1.99-3.98,4-5.98,5.98
	c-0.95,0.94-2.35,0.62-2.69-0.61c-0.16-0.59,0.01-1.11,0.43-1.54c0.46-0.47,0.93-0.94,1.4-1.41c1.33-1.33,2.66-2.67,4-4
	c0.2-0.2,0.29-0.39,0.29-0.68c-0.01-3.76-0.01-7.52-0.01-11.28c0-0.82,0.37-1.4,1.02-1.64c1.03-0.38,2.08,0.36,2.1,1.51
	c0.02,1.56,0,3.12,0,4.68C25.4,16.54,25.4,17.05,25.4,17.56z"/>
<path class="st0" d="M31.49,42.18c-0.73-0.04-1.33-0.51-1.51-1.21c-0.17-0.65,0.11-1.36,0.72-1.7c0.51-0.29,1.03-0.55,1.56-0.79
	c0.76-0.34,1.62-0.02,2,0.7c0.38,0.73,0.15,1.61-0.58,2.04c-0.51,0.3-1.05,0.56-1.59,0.81C31.91,42.12,31.69,42.13,31.49,42.18z"/>
<path class="st0" d="M39.95,28.98c0.15-0.5,0.31-1.28,0.61-2c0.28-0.68,1.12-0.95,1.82-0.72c0.69,0.23,1.16,0.91,1.04,1.63
	c-0.11,0.66-0.28,1.32-0.5,1.96c-0.25,0.71-0.99,1.05-1.78,0.9C40.46,30.62,39.96,29.99,39.95,28.98z"/>
<path class="st0" d="M40.32,34.82c-0.15,0.33-0.27,0.69-0.47,0.99c-0.27,0.4-0.59,0.76-0.9,1.13c-0.58,0.7-1.51,0.82-2.19,0.3
	c-0.7-0.54-0.82-1.48-0.26-2.22c0.34-0.44,0.69-0.88,1.06-1.29c0.44-0.49,1.12-0.62,1.71-0.38C39.86,33.59,40.23,34.14,40.32,34.82z
	"/>
</svg>
