<?xml version="1.0" encoding="utf-8"?>
<!-- Generator: Adobe Illustrator 25.1.0, SVG Export Plug-In . SVG Version: 6.00 Build 0)  -->
<svg version="1.1" id="Layer_1" xmlns="http://www.w3.org/2000/svg" xmlns:xlink="http://www.w3.org/1999/xlink" x="0px" y="0px" viewBox="0 0 48 48" style="enable-background:new 0 0 48 48;" xml:space="preserve">
    <style type="text/css">
    .st0 {
        fill: #1cb2d8;
    }
    </style>
    <path class="st0" d="M1.21,23.92C1.22,11.3,11.45,1.12,24.1,1.14c12.51,0.02,22.71,10.27,22.7,22.82
	C46.78,36.64,36.55,46.8,23.76,46.71C11.27,46.63,1.23,36.48,1.21,23.92z M4.49,23.94c-0.01,10.71,8.73,19.52,19.4,19.54
	c10.91,0.02,19.64-8.64,19.68-19.5c0.03-10.72-8.7-19.56-19.36-19.58C13.29,4.39,4.5,13.09,4.49,23.94z" />
    <path class="st0" d="M26.38,23.88c0.91,0.95,1.8,1.88,2.7,2.79c0.98,0.99,1.98,1.95,2.97,2.93c0.77,0.76,0.81,1.73,0.13,2.43
	c-0.7,0.72-1.68,0.68-2.47-0.11c-1.88-1.88-3.76-3.77-5.69-5.69c-0.14,0.14-0.28,0.26-0.4,0.38c-1.76,1.79-3.52,3.57-5.29,5.36
	c-0.48,0.49-1.05,0.69-1.71,0.48c-0.62-0.19-1-0.63-1.12-1.26c-0.11-0.6,0.11-1.09,0.53-1.52c1.75-1.77,3.5-3.55,5.25-5.33
	c0.13-0.13,0.25-0.27,0.4-0.43c-0.14-0.15-0.26-0.29-0.39-0.41c-1.74-1.74-3.48-3.48-5.21-5.22c-0.56-0.56-0.68-1.25-0.36-1.91
	c0.29-0.6,0.92-1.01,1.57-0.89c0.41,0.08,0.84,0.3,1.14,0.58c1.73,1.68,3.42,3.39,5.12,5.1c0.13,0.13,0.24,0.28,0.4,0.47
	c0.18-0.17,0.31-0.29,0.44-0.41c1.79-1.79,3.57-3.57,5.36-5.36c0.5-0.5,1.1-0.65,1.77-0.41c0.65,0.24,1.01,0.73,1.07,1.42
	c0.05,0.58-0.2,1.04-0.62,1.44c-1.77,1.73-3.53,3.47-5.29,5.21C26.57,23.68,26.46,23.8,26.38,23.88z" />
</svg>