<?xml version="1.0" encoding="utf-8"?>
<!-- Generator: Adobe Illustrator 25.1.0, SVG Export Plug-In . SVG Version: 6.00 Build 0)  -->
<svg version="1.1" id="Layer_1" xmlns="http://www.w3.org/2000/svg" xmlns:xlink="http://www.w3.org/1999/xlink" x="0px" y="0px"
	 viewBox="0 0 48 48" style="enable-background:new 0 0 48 48;" xml:space="preserve">
<style type="text/css">
	.st0{fill:#FFFFFF;}
</style>
<path class="st0" d="M26.47,27.41c4.03-4.04,7.92-7.92,11.85-11.85c-0.08-0.09-0.18-0.22-0.3-0.33c-0.66-0.66-1.32-1.33-1.99-1.99
	c-0.35-0.35-0.59-0.73-0.39-1.25c0.19-0.51,0.56-0.69,1.08-0.74c2.78-0.27,5.55-0.57,8.32-0.86c0.76-0.08,1.29,0.38,1.24,1.15
	c-0.1,1.38-0.26,2.76-0.4,4.14c-0.14,1.38-0.31,2.76-0.43,4.14c-0.05,0.54-0.18,1-0.73,1.19c-0.51,0.18-0.93,0-1.31-0.39
	c-0.62-0.66-1.27-1.28-1.95-1.96c-0.17,0.16-0.32,0.28-0.46,0.42c-4.2,4.2-8.42,8.38-12.58,12.61c-1.01,1.03-2.58,1.08-3.62-0.01
	c-2.15-2.26-4.4-4.44-6.61-6.65c-0.13-0.13-0.27-0.26-0.43-0.41c-0.17,0.15-0.32,0.28-0.46,0.42c-3.93,3.93-7.86,7.87-11.8,11.8
	c-0.85,0.85-1.93,1-2.84,0.4c-1.05-0.69-1.28-2.15-0.5-3.13c0.13-0.16,0.27-0.3,0.42-0.44c4.46-4.46,8.93-8.93,13.39-13.39
	c1.18-1.18,2.39-1.18,3.58,0.01c2.2,2.2,4.4,4.39,6.6,6.6C26.28,27.05,26.36,27.25,26.47,27.41z"/>
</svg>
