<?xml version="1.0" encoding="utf-8"?>
<!-- Generator: Adobe Illustrator 22.0.1, SVG Export Plug-In . SVG Version: 6.00 Build 0)  -->
<svg version="1.1" id="Layer_1" xmlns="http://www.w3.org/2000/svg" xmlns:xlink="http://www.w3.org/1999/xlink" x="0px" y="0px"
	 viewBox="0 0 43 43" style="enable-background:new 0 0 43 43;" xml:space="preserve">
<style type="text/css">
	.st0{fill:#0e539a;}
	.st1{fill:#0e539a;}
</style>
<g>
	<g>
		<path class="st0" d="M30.6,40H12.4C7.2,40,3,35.7,3,30.6V12.4C3,7.2,7.3,3,12.4,3h18.2c5.2,0,9.4,4.3,9.4,9.4v18.2
			C40,35.8,35.8,40,30.6,40z M12.4,4.7c-4.3,0-7.7,3.5-7.7,7.7v18.2c0,4.3,3.5,7.7,7.7,7.7h18.2c4.3,0,7.7-3.5,7.7-7.7V12.4
			c0-4.3-3.5-7.7-7.7-7.7C30.6,4.7,12.4,4.7,12.4,4.7z"/>
	</g>
</g>
<g>
	<g>
		<path class="st1" d="M13.6,14.4c0.3-0.3,1-0.6,1.6-0.8s1.3-0.3,2-0.3c0.7,0,1.3,0.1,1.8,0.3c0.5,0.2,1,0.4,1.5,0.8
			c0.4,0.3,0.8,0.8,1,1.3c0.3,0.5,0.3,1.1,0.3,1.7c0,0.8-0.2,1.5-0.5,2.1c-0.3,0.5-0.8,1-1.3,1.3c0.5,0.2,1,0.3,1.5,0.3
			c0.5,0,1,0.1,1.4,0.1c0.5,0,1-0.1,1.6-0.2c0.5-0.2,1-0.3,1.2-0.5v-5.2h-2.4v-1.7h6.6v1.7h-2.3v14.5h-2v-7.2
			c-0.6,0.3-1.4,0.4-2.2,0.4c-0.3,0-0.7,0-1-0.1c-0.3-0.1-0.7-0.2-1.1-0.3l-0.1,0.1c0.3,0.3,0.5,0.7,0.7,1.1
			c0.2,0.3,0.3,0.8,0.3,1.3c0,1.4-0.4,2.4-1.3,3.2c-0.9,0.8-2.1,1.1-3.7,1.1c-0.3,0-0.8,0-1.1-0.1c-0.3-0.1-0.8-0.2-1.1-0.3
			c-0.3-0.1-0.7-0.3-1-0.4c-0.3-0.2-0.6-0.3-0.8-0.5l0.9-1.5c0.4,0.3,1,0.7,1.5,0.9c0.5,0.2,1.1,0.3,1.7,0.3c0.4,0,0.8-0.1,1.1-0.2
			s0.7-0.3,1-0.5s0.5-0.5,0.7-0.9c0.2-0.3,0.3-0.8,0.3-1.3c0-0.9-0.3-1.6-0.8-2.1c-0.5-0.5-1.4-0.8-2.6-0.8h-1.6v-1.7h1.4
			c1,0,1.8-0.2,2.4-0.7c0.5-0.5,0.9-1.1,0.9-2s-0.3-1.5-0.8-1.8c-0.5-0.4-1.1-0.6-1.9-0.6c-0.3,0-0.9,0.1-1.3,0.2
			c-0.5,0.1-1,0.3-1.4,0.6L13.6,14.4z"/>
	</g>
</g>
</svg>
